# xmcd
# Track frame offsets:
# 150
# 20023
# 36783
# 53425
# 76474
# 94644
# 112893
# 138953
# 158665
# 179849
# 211628
#
# Disc length: 3044 seconds
# Revision: 0
# Processed by: cddbd v1.5PL3 Copyright (c) Steve Scherf et al.
# Submitted via: VisiTrax 2.9.7.197 - For more info visit www.synapsa.com
#
DISCID=820be20b
DTITLE=Barbara Carr - Talk To Me
DYEAR=2004
DGENRE=Blues
TTITLE0=Talk To Me
TTITLE1=Front, Back and Side To Side
TTITLE2=Drop It Like It's Hot
TTITLE3=Your Love
TTITLE4=What Goes Around, Comes Around
TTITLE5=Love Me With A Feeling
TTITLE6=Forever and Always
TTITLE7=Getting My Groove On
TTITLE8=I've Got A Love Jones (For You Baby)
TTITLE9=Drop It Lie It's Hot/Remix
TTITLE10=Front, Back and Side To Side/Remix
EXTD=
EXTT0=
EXTT1=
EXTT2=
EXTT3=
EXTT4=
EXTT5=
EXTT6=
EXTT7=
EXTT8=
EXTT9=
EXTT10=
PLAYORDER=
